<!--?xml version="1.0" standalone="no"?-->
<svg id="sw-js-blob-svg" viewBox="0 0 100 100" xmlns="http://www.w3.org/2000/svg" version="1.1"
preserveAspectRatio="none">
    <defs> 
        <linearGradient id="sw-gradient" x1="0" x2="1" y1="1" y2="0">
            <stop id="stop1" stop-color="rgba(129, 156, 198, 1)" offset="0%"></stop>
            <stop id="stop2" stop-color="rgba(199, 145, 145, 1)" offset="100%"></stop>
        </linearGradient>
    </defs>
<path fill="url(#sw-gradient)" d="M22.1,-29.1C26.9,-26.9,27.9,-18.1,29,-10.5C30,-2.8,31.1,3.8,31.1,12C31,20.2,29.9,29.9,24.6,33.8C19.2,37.8,9.6,35.9,1.3,34.1C-7,32.3,-14,30.5,-18.4,26.3C-22.8,22.1,-24.7,15.4,-27.4,8.6C-30,1.8,-33.4,-5.1,-31.7,-10.2C-29.9,-15.4,-23,-18.8,-16.9,-20.5C-10.7,-22.2,-5.4,-22.3,1.6,-24.6C8.6,-26.8,17.3,-31.2,22.1,-29.1Z" width="100%" height="100%" transform="translate(50 45) scale(1.5)" stroke-width="0" style="transition: all 0.3s ease 0s;"></path>
</svg>